<?xml version="1.0" standalone="no"?><!DOCTYPE svg PUBLIC "-//W3C//DTD SVG 1.1//EN" "http://www.w3.org/Graphics/SVG/1.1/DTD/svg11.dtd"><svg t="1766309478126" class="icon" viewBox="0 0 1024 1024" version="1.1" xmlns="http://www.w3.org/2000/svg" p-id="10096" data-spm-anchor-id="a313x.search_index.0.i0.6b3b3a81Af4dF6" xmlns:xlink="http://www.w3.org/1999/xlink" width="200" height="200"><path d="M458.08 747.85c-73.1 0-132.57-59.46-132.57-132.56 0-31.84 10.71-76.66 28.34-124.05 10.13 171.46 60.78 216.14 104.23 256.61z" p-id="10097" data-spm-anchor-id="a313x.search_index.0.i4.6b3b3a81Af4dF6" class="selected" fill="#35a593"></path><path d="M887.14 334.6h40.03V97H511.38l-14.26 0.24c-183.64 6.34-341.34 132.46-387.89 310.22-46.55 177.75 29.1 364.98 186.06 460.51 156.96 95.52 358.02 76.7 494.52-46.32 136.51-123.01 176.07-321.04 97.33-487.05zM465.18 783.66c-98.14 0-177.99-79.84-177.99-177.98 0-92.56 75.98-273.19 164.63-352.04l22.25-19.78 10.01 28.04c9.05 25.35 20.09 49.79 32.01 73.23-32.64 68.29-53.67 140.42-53.67 188.18 0 89.82 68.25 164 155.62 173.43-31.1 52.01-87.98 86.92-152.86 86.92z m168.34-131.77c-78.57 0-142.48-63.92-142.48-142.47 0-72.66 59.58-214.41 129.12-276.26l22.25-19.78 10.01 28.04c16.99 47.54 43.11 91.08 66.17 129.49 30.8 51.33 57.41 95.66 57.41 138.52-0.01 78.54-63.93 142.46-142.48 142.46z" p-id="10098" data-spm-anchor-id="a313x.search_index.0.i1.6b3b3a81Af4dF6" class="selected" fill="#35a593"></path><path d="M642.72 610.91c-56.66 0-102.75-46.09-102.75-102.75 0-24.69 8.3-59.42 21.97-96.15 7.85 132.9 47.1 167.53 80.78 198.9z m0 0" p-id="10099" data-spm-anchor-id="a313x.search_index.0.i3.6b3b3a81Af4dF6" class="selected" fill="#35a593"></path></svg>