<?xml version="1.0" standalone="no"?><!DOCTYPE svg PUBLIC "-//W3C//DTD SVG 1.1//EN" "http://www.w3.org/Graphics/SVG/1.1/DTD/svg11.dtd"><svg t="1713354603864" class="icon" viewBox="0 0 1024 1024" version="1.1" xmlns="http://www.w3.org/2000/svg" p-id="2351" xmlns:xlink="http://www.w3.org/1999/xlink" width="200" height="200"><path d="M512 1023.488C230.656 1023.488 0.512 793.344 0.512 512S230.656 0.512 512 0.512s511.488 230.144 511.488 511.488-230.144 511.488-511.488 511.488z m0-920.6784A408.7808 408.7808 0 0 0 102.8096 512 408.7808 408.7808 0 0 0 512 921.1904c225.0752 0 409.1904-184.1152 409.1904-409.1904A408.7808 408.7808 0 0 0 512 102.8096z m0 682.8544A273.92 273.92 0 0 1 238.336 512 273.92 273.92 0 0 1 512 238.336 273.92 273.92 0 0 1 785.664 512 273.92 273.92 0 0 1 512 785.664z" fill="#5FB878" p-id="2352"></path></svg>

