<?xml version="1.0" standalone="no"?><!DOCTYPE svg PUBLIC "-//W3C//DTD SVG 1.1//EN" "http://www.w3.org/Graphics/SVG/1.1/DTD/svg11.dtd"><svg t="1720660814875" class="icon" viewBox="0 0 1024 1024" version="1.1" xmlns="http://www.w3.org/2000/svg" p-id="17438" xmlns:xlink="http://www.w3.org/1999/xlink" width="200" height="200"><path d="M102.4 512h819.2v225.6H102.4V512z" fill="#2196F3" p-id="17439"></path><path d="M61.6 778.4c-22.4 0-40.8-18.4-40.8-40.8V512c0-22.4 18.4-40.8 40.8-40.8s40.8 18.4 40.8 40.8v225.6c0 22.4-18.4 40.8-40.8 40.8z m900.8 0c-22.4 0-40.8-18.4-40.8-40.8V512c0-22.4 18.4-40.8 40.8-40.8s40.8 18.4 40.8 40.8v225.6c0 22.4-18.4 40.8-40.8 40.8zM102.4 512H184v225.6H102.4V512z m737.6 0h81.6v225.6H840V512z" fill="#1E88E5" p-id="17440"></path><path d="M512 737.6c-67.2 0-123.2-55.2-123.2-123.2v-328h245.6v328c0.8 67.2-55.2 123.2-122.4 123.2z" fill="#2196F3" p-id="17441"></path><path d="M635.2 286.4H388.8c-22.4 0-40.8-18.4-40.8-40.8s18.4-40.8 40.8-40.8h245.6c22.4 0 40.8 18.4 40.8 40.8s-17.6 40.8-40 40.8z" fill="#1E88E5" p-id="17442"></path></svg>

