<?xml version="1.0" standalone="no"?><!DOCTYPE svg PUBLIC "-//W3C//DTD SVG 1.1//EN" "http://www.w3.org/Graphics/SVG/1.1/DTD/svg11.dtd"><svg t="1765978540026" class="icon" viewBox="0 0 1024 1024" version="1.1" xmlns="http://www.w3.org/2000/svg" p-id="7543" xmlns:xlink="http://www.w3.org/1999/xlink" width="200" height="200"><path d="M511.942774 1001.109646a487.907902 487.907902 0 0 1-345.873253-143.293618A489.281323 489.281323 0 0 1 321.609478 61.34615a489.510227 489.510227 0 0 1 641.044372 641.044372 490.9981 490.9981 0 0 1-260.37778 260.263328 485.16106 485.16106 0 0 1-190.333296 38.455796z" fill="#EB8304" p-id="7544"></path><path d="M511.942774 45.780709a464.788644 464.788644 0 1 1-181.406058 36.624567 463.644127 463.644127 0 0 1 181.406058-36.624567m0-45.780709C229.132447 0 0 229.246898 0 511.942774s229.132447 512.057226 511.942774 512.057226 511.942774-229.246898 511.942774-512.057226S794.753102 0 511.942774 0z" fill="#FFFFFF" p-id="7545"></path><path d="M497.064044 514.804068L295.056667 348.620096V680.988041l202.007377-166.183973z" fill="#EB8304" p-id="7546"></path><path d="M295.056667 703.878395a25.064938 25.064938 0 0 1-9.842852-2.174584 22.890354 22.890354 0 0 1-13.047502-20.71577V348.620096a22.775903 22.775903 0 0 1 37.425729-17.625573L511.599419 497.064044a23.004806 23.004806 0 0 1 8.354979 17.740024 22.775903 22.775903 0 0 1-8.354979 17.625573L309.592042 698.613614a23.119258 23.119258 0 0 1-14.535375 5.264781z m22.890354-306.730748v235.312843l143.064715-117.656422z" fill="#FFFFFF" p-id="7547"></path><path d="M527.622667 516.063038l202.007377 166.183972V349.993517L527.622667 516.063038z" fill="#EB8304" p-id="7548"></path><path d="M729.630044 705.137364a23.119258 23.119258 0 0 1-14.649827-5.150329L513.087292 533.803062a22.890354 22.890354 0 0 1 0-35.365597l201.892925-166.183972a23.004806 23.004806 0 0 1 24.378227-2.975746 22.775903 22.775903 0 0 1 13.047502 20.601319v332.367944a22.775903 22.775903 0 0 1-13.047502 20.715771 22.318095 22.318095 0 0 1-9.7284 2.174583zM563.560523 516.063038l143.064715 117.770873V398.406617zM294.255505 536.092098h-102.319884a22.890354 22.890354 0 1 1 0-45.780709h102.319884a22.890354 22.890354 0 0 1 0 45.780709z" fill="#FFFFFF" p-id="7549"></path><path d="M833.552252 536.092098h-102.319884a22.890354 22.890354 0 1 1 0-45.780709h102.319884a22.890354 22.890354 0 0 1 0 45.780709zM510.111546 629.713647a22.890354 22.890354 0 0 1-22.890355-22.890354V419.580194a22.890354 22.890354 0 0 1 45.780709 0v187.243099a22.775903 22.775903 0 0 1-22.890354 22.890354z" fill="#FFFFFF" p-id="7550"></path></svg>